PathFileType	4	(X/Y/Z)	TVC_58_BWA_05_walk_RCNL2025.trc
DataRate	CameraRate	NumFrames	NumMarkers	Units	OrigDataRate	OrigDataStartFrame	OrigNumFrames
100	100	12	27	mm	100	1	366
Frame#	Time	R_Shoulder			L_Shoulder			C7			J_Notch			R_Elbow			L_Elbow			R_Wrist			L_Wrist			R_Asis			L_Asis			R_Psis			L_Psis			Sacral			Thoracic			Sternum			R_Thigh_Lateral			R_Knee_Lateral			R_Shank_Lateral			R_Ankle_Lateral			R_Heel			R_Toe			L_Thigh_Lateral			L_Knee_Lateral			L_Shank_Lateral			L_Ankle_Lateral			L_Heel			L_Toe		
		X1	Y1	Z1	X2	Y2	Z2	X3	Y3	Z3	X4	Y4	Z4	X5	Y5	Z5	X6	Y6	Z6	X7	Y7	Z7	X8	Y8	Z8	X9	Y9	Z9	X10	Y10	Z10	X11	Y11	Z11	X12	Y12	Z12	X13	Y13	Z13	X14	Y14	Z14	X15	Y15	Z15	X16	Y16	Z16	X17	Y17	Z17	X18	Y18	Z18	X19	Y19	Z19	X20	Y20	Z20	X21	Y21	Z21	X22	Y22	Z22	X23	Y23	Z23	X24	Y24	Z24	X25	Y25	Z25	X26	Y26	Z26	X27	Y27	Z27
1	0.00000000	-1969.582642	1324.543823	378.269318	-1971.802856	1343.773438	22.118549	-2026.626221	1408.478760	195.297104	-1889.504272	1300.632568	200.126312	-1945.392944	1006.412842	444.192749	-2078.861816	1033.254639	-32.735626	-1802.369019	799.231293	454.077591	-2021.102051	793.149536	-91.493370	-1891.314941	895.829041	338.573792	-1878.131226	894.275269	25.528084	-2115.546875	943.483887	231.162979	-2112.873535	927.808533	122.140533	-2114.210205	935.646210	176.651756	-2096.672607	1106.282959	185.373123	-1800.485352	1064.082397	184.690384	-1950.968994	680.615479	410.900818	-2001.698364	454.216797	320.918213	-2062.102539	255.271210	352.514862	-2124.758301	67.176682	240.821014	-2177.727539	66.743759	187.514114	-1999.940674	44.364929	204.176147	-1907.699585	649.691772	-47.249065	-1775.474731	480.491486	57.529770	-1747.720581	303.614716	3.729576	-1742.964722	73.442505	85.451256	-1788.333618	57.353397	134.562347	-1607.114868	85.318596	114.304832
2	0.01000000	-1962.245972	1323.323120	378.367310	-1963.863892	1342.210938	22.130878	-2019.074219	1406.958862	195.178146	-1881.877563	1299.236572	200.303650	-1936.462524	1005.205505	444.022980	-2070.552002	1031.697632	-32.631691	-1790.840454	799.646210	452.451675	-2015.445129	790.890350	-90.546562	-1884.034302	895.035400	339.140472	-1870.254028	892.816650	25.673243	-2108.005371	941.973389	230.438370	-2105.123047	926.338318	121.938057	-2106.564209	934.155853	176.188213	-2088.999268	1104.782715	185.142288	-1792.737427	1063.005249	185.347519	-1943.357788	679.315552	410.821167	-1997.710205	453.620117	320.862762	-2060.171875	255.214890	352.500458	-2124.539307	67.581596	240.781860	-2177.470947	67.622292	187.440994	-1999.867676	44.292500	204.071091	-1901.858032	648.044128	-47.287491	-1768.465698	479.342743	58.134609	-1736.252441	303.900757	4.623135	-1723.864746	73.235619	87.355270	-1768.839478	56.239819	136.572769	-1587.809082	88.803497	116.015060
3	0.02000000	-1954.883545	1322.083496	378.412292	-1955.878540	1340.626587	22.086773	-2011.490723	1405.451416	195.003372	-1874.197754	1297.864624	200.422577	-1927.689331	1003.948669	443.815430	-2062.105469	1030.107788	-32.653919	-1779.620300	799.949127	450.803116	-2009.567749	788.678253	-89.825848	-1876.588623	894.187805	339.677673	-1862.279907	891.375305	25.801895	-2100.303467	940.484314	229.789368	-2097.226562	924.871643	121.740250	-2098.765015	932.677979	175.764809	-2081.214600	1103.265625	184.917236	-1784.924561	1061.959229	185.950928	-1935.681030	678.007019	410.784393	-1993.707886	453.036041	320.852875	-2058.414795	255.231003	352.483368	-2124.339355	68.049416	240.774734	-2177.191406	68.577187	187.346542	-1999.797363	44.223904	203.999756	-1895.638916	646.427490	-47.257950	-1761.318848	478.225311	58.697010	-1725.503296	304.008636	5.581941	-1706.792969	72.942268	89.516632	-1751.337769	55.327515	138.938553	-1570.443604	91.527115	117.726471
4	0.03000000	-1947.489380	1320.831787	378.404114	-1947.851074	1339.026123	21.986380	-2003.875366	1403.962158	194.774139	-1866.464478	1296.523315	200.482269	-1919.072754	1002.648010	443.570068	-2053.529785	1028.489014	-32.797184	-1768.712402	800.140533	449.134964	-2003.465881	786.519012	-89.329708	-1868.965942	893.274902	340.176331	-1854.200439	889.962524	25.911779	-2092.437500	939.023682	229.223358	-2089.184326	923.412720	121.552155	-2090.810913	931.218201	175.387756	-2073.319092	1101.737671	184.700256	-1777.035278	1060.940308	186.494095	-1927.980469	676.710754	410.798889	-1989.656128	452.465057	320.874390	-2056.748535	255.328598	352.469635	-2124.142822	68.580116	240.789230	-2176.882080	69.611115	187.240433	-1999.726929	44.161026	203.961258	-1889.018311	644.831848	-47.136326	-1754.018555	477.137543	59.238583	-1715.517212	303.744049	6.576017	-1691.757568	72.510796	91.901154	-1735.850830	54.543274	141.611282	-1555.062378	93.388237	119.447777
5	0.04000000	-1940.056030	1319.576782	378.342712	-1939.787354	1337.417603	21.830015	-1996.227539	1402.498535	194.492340	-1858.676880	1295.221436	200.481842	-1910.611694	1001.311707	443.286804	-2044.834595	1026.847046	-33.055027	-1758.121765	800.221497	447.451172	-1997.134766	784.420258	-89.055546	-1861.151001	892.285889	340.624542	-1846.005005	888.591980	25.999014	-2084.403564	937.600586	228.748795	-2080.996826	921.967407	121.380287	-2082.700195	929.783997	175.064541	-2065.312988	1100.206909	184.494049	-1769.056274	1059.945312	186.969360	-1920.289062	675.441284	410.867218	-1985.512329	451.905945	320.909088	-2055.071533	255.508194	352.467682	-2123.932861	69.174080	240.817368	-2176.536377	70.728104	187.134995	-1999.653931	44.105755	203.954147	-1881.973999	643.247986	-46.904980	-1746.549316	476.077515	59.780411	-1706.282715	302.940216	7.594387	-1678.741089	71.896248	94.466110	-1722.377319	53.815479	144.529572	-1541.689575	94.304268	121.188904
6	0.05000000	-1932.574829	1318.330078	378.228394	-1931.693970	1335.811401	21.618259	-1988.546753	1401.070312	194.160370	-1850.834717	1293.969849	200.420410	-1902.304688	999.950317	442.965576	-2036.029907	1025.189941	-33.419662	-1747.854431	800.193695	445.756699	-1990.568665	782.391571	-88.999344	-1853.126465	891.212524	341.007782	-1837.681030	887.278687	26.057714	-2076.197266	936.225647	228.374634	-2072.665771	920.543640	121.232292	-2074.431519	928.384644	174.803463	-2057.197021	1098.683716	184.301697	-1760.973022	1058.972656	187.368423	-1912.625000	674.205139	410.983154	-1981.229736	451.356812	320.936829	-2053.285645	255.763153	352.482574	-2123.692139	69.832916	240.854584	-2176.147949	71.934021	187.045044	-1999.575562	44.059677	203.976837	-1874.492065	641.670715	-46.555984	-1738.897705	475.043976	60.340611	-1697.742188	301.506958	8.651108	-1667.690430	71.069382	97.160805	-1710.881714	53.084267	147.620132	-1530.312622	94.225471	122.963112
7	0.06000000	-1925.036011	1317.106323	378.061768	-1923.578735	1334.220703	21.352060	-1980.832642	1399.688477	193.781219	-1842.937500	1292.781616	200.297256	-1894.149658	998.577576	442.606323	-2027.127319	1023.528381	-33.882072	-1737.917419	800.059631	444.057465	-1983.761108	780.444580	-89.155354	-1844.873535	890.051514	341.309937	-1829.215454	886.039429	26.080072	-2067.814453	934.911011	228.109619	-2064.194092	919.152039	121.116486	-2066.004272	927.031525	174.613052	-2048.972900	1097.180176	184.126450	-1752.770630	1058.024536	187.683014	-1904.988281	673.000977	411.130951	-1976.762329	450.815796	320.937012	-2051.311279	256.081512	352.512634	-2123.404053	70.560715	240.900909	-2175.711182	73.237518	186.986893	-1999.488647	44.023632	204.028000	-1866.572998	640.103271	-46.092892	-1731.053467	474.037872	60.932167	-1689.855469	299.455048	9.784511	-1658.507812	70.023933	99.927467	-1701.285278	52.310608	150.799469	-1520.866943	93.145882	124.787743
8	0.07000000	-1917.429199	1315.922729	377.843903	-1915.449829	1332.661621	21.032883	-1973.084595	1398.366333	193.358383	-1834.985229	1291.671509	200.111877	-1886.144165	997.210449	442.208954	-2018.138672	1021.875854	-34.432117	-1728.318787	799.822968	442.360474	-1976.705017	778.593018	-89.515881	-1836.374023	888.805969	341.514221	-1820.595215	884.892700	26.056950	-2059.251953	933.669617	227.961533	-2055.585938	917.806030	121.041138	-2057.418945	925.737823	174.501335	-2040.642456	1095.710693	183.971619	-1744.434692	1057.107178	187.905640	-1897.360596	671.821777	411.286621	-1972.068237	450.281647	320.889435	-2049.102051	256.452454	352.549713	-2123.054688	71.365448	240.960953	-2175.221436	74.651291	186.976456	-1999.388306	43.997353	204.106720	-1858.236816	638.561401	-45.530621	-1723.011475	473.064240	61.561447	-1682.638794	296.875824	11.043231	-1651.047974	68.780869	102.702393	-1693.461914	51.482574	153.976074	-1513.226929	91.110336	126.682091
9	0.08000000	-1909.744141	1314.799194	377.576355	-1907.316162	1331.152588	20.662838	-1965.302612	1397.118286	192.895874	-1826.978027	1290.656372	199.864197	-1878.284424	995.868958	441.773438	-2009.076294	1020.248657	-35.058681	-1719.067383	799.488495	440.673798	-1969.393127	776.852509	-90.071106	-1827.611938	887.486755	341.604553	-1811.809082	883.859497	25.978872	-2050.508057	932.514832	227.936356	-2046.846924	916.522278	121.013687	-2048.677490	924.518555	174.475021	-2032.208496	1094.291138	183.840286	-1735.952759	1056.232788	188.030075	-1889.707397	670.658630	411.420227	-1967.112427	449.755463	320.774719	-2046.644409	256.872009	352.581573	-2122.631836	72.260300	241.042038	-2174.673828	76.193047	187.026886	-1999.267700	43.979496	204.212341	-1849.523438	637.075256	-44.893963	-1714.771118	472.133911	62.227531	-1676.141113	293.899933	12.464560	-1645.119751	67.388184	105.417191	-1687.239990	50.617195	157.053406	-1507.203247	88.216385	128.662643
10	0.09000000	-1901.970703	1313.757935	377.261108	-1899.186035	1329.714844	20.244797	-1957.486572	1395.959839	192.398209	-1818.916992	1289.753906	199.554581	-1870.566528	994.576233	441.299805	-1999.951660	1018.666260	-35.749893	-1710.172180	799.062469	439.006638	-1961.817627	775.240509	-90.809044	-1818.574951	886.113220	341.566467	-1802.848633	882.963989	25.836939	-2041.582520	931.459900	228.037613	-2037.983765	915.320435	121.039978	-2039.783142	923.390167	174.538795	-2023.674683	1092.938843	183.735153	-1727.315674	1055.419189	188.051376	-1881.980469	669.505493	411.499084	-1961.867920	449.242310	320.574554	-2043.946045	257.342773	352.593658	-2122.125977	73.264526	241.152054	-2174.062988	77.886330	187.146500	-1999.117920	43.968380	204.344193	-1840.490723	635.689758	-44.215302	-1706.336670	471.264069	62.922276	-1670.383789	290.674652	14.054647	-1640.494751	65.915977	108.000633	-1682.409180	49.757210	159.933929	-1502.551147	84.609741	130.736115
11	0.10000000	-1894.099731	1312.822998	376.900635	-1891.067993	1328.371094	19.782434	-1949.637085	1394.906860	191.870178	-1810.803223	1288.982666	199.183990	-1862.985352	993.358093	440.788300	-1990.776001	1017.150635	-36.493370	-1701.642700	798.552704	437.369324	-1953.971008	773.775818	-91.715607	-1809.256226	884.712830	341.387756	-1793.710205	882.233887	25.623514	-2032.477295	930.517456	228.265747	-2029.003784	914.222656	121.123642	-2030.740540	922.370056	174.694695	-2015.045410	1091.671631	183.658142	-1718.518433	1054.690308	187.965866	-1874.121704	668.362183	411.491852	-1956.313232	448.752014	320.272156	-2041.018677	257.871094	352.570709	-2121.528809	74.403542	241.298050	-2173.380127	79.760925	187.337204	-1998.927734	43.963173	204.501190	-1831.209106	634.461670	-43.531738	-1697.716064	470.478424	63.630882	-1665.304932	287.377869	15.776594	-1636.920898	64.447166	110.381668	-1678.733765	48.963192	162.524887	-1498.987183	80.472908	132.891693
12	0.11000000	-1886.124146	1312.019531	376.497742	-1882.969849	1327.145752	19.280214	-1941.754761	1393.975586	191.316879	-1802.639038	1288.361450	198.754059	-1855.535278	992.242493	440.239349	-1981.560059	1015.726318	-37.276569	-1693.487671	797.968414	435.773376	-1945.845825	772.478210	-92.774723	-1799.656128	883.321167	341.058716	-1784.396362	881.699829	25.332525	-2023.196167	929.698608	228.617599	-2019.915405	913.252808	121.265526	-2021.555786	921.475708	174.941563	-2006.326050	1090.507812	183.610291	-1709.561279	1054.076050	187.771378	-1866.066406	667.236633	411.372375	-1950.428467	448.299072	319.853729	-2037.864014	258.471069	352.499054	-2120.831055	75.708359	241.485550	-2172.611572	81.852852	187.593811	-1998.683350	43.964760	204.681595	-1821.754517	633.453613	-42.882324	-1688.920532	469.805389	64.332870	-1660.719360	284.255890	17.547142	-1634.142578	63.065178	112.494110	-1675.969604	48.302124	164.745697	-1496.215576	76.008171	135.094986
